<svg xmlns="http://www.w3.org/2000/svg" viewBox="0 0 581 590"><defs><style>.prefix__cls-1{fill:#fff}</style></defs><g id="prefix__Layer_2" data-name="Layer 2"><g id="prefix__Layer_1-2" data-name="Layer 1"><path class="prefix__cls-1" d="M0 0h581v590H0Zm291 10-1 2a122 122 0 0 1-28 22 131 131 0 0 1-40 16l-34 6-24 6c-13 5-22 14-28 26a4 4 0 0 1-3 3 47 47 0 0 0-26 10 65 65 0 0 0-14 18l-12 21-17 29a123 123 0 0 1-51 44l-2 1a2 2 0 0 0 0 1l1 1a123 123 0 0 1 15 63l-3 36c-2 9-3 19-3 28a69 69 0 0 0 1 18 47 47 0 0 0 15 25 3 3 0 0 1 1 4 65 65 0 0 0-1 9c0 11 3 21 9 30l18 21 26 28c15 19 25 41 28 65a14 14 0 0 0 0 2l2-1a125 125 0 0 1 23-2 123 123 0 0 1 40 6l31 14 28 13a68 68 0 0 0 21 5 46 46 0 0 0 26-7h4a8 8 0 0 0 1 1 47 47 0 0 0 28 5 62 62 0 0 0 19-4l24-12c12-5 23-11 35-15a122 122 0 0 1 61-4l4 1v-6c4-22 13-42 26-59l25-27a217 217 0 0 0 18-20c10-13 14-27 10-44l1-3a48 48 0 0 0 14-19 59 59 0 0 0 3-21c0-10-2-20-3-29l-4-33a137 137 0 0 1 2-29 123 123 0 0 1 14-38l1-3-2-1a128 128 0 0 1-19-11c-15-10-27-23-36-38l-17-31c-4-8-8-15-14-22-9-12-20-19-35-20a3 3 0 0 1-2-2 49 49 0 0 0-8-13c-6-7-14-12-23-15l-28-6-30-6c-26-6-48-18-66-38l-1-1Z"/><path d="m291 10 1 1c18 20 40 32 66 38l30 6c9 1 19 3 28 6s17 8 23 15a49 49 0 0 1 8 13 3 3 0 0 0 2 2c15 1 26 8 35 20 6 7 10 14 14 22l17 31c9 15 21 28 36 39a128 128 0 0 0 19 11l2 1-1 2a123 123 0 0 0-14 38 137 137 0 0 0-2 29l4 33c1 10 3 19 3 29a59 59 0 0 1-3 21 48 48 0 0 1-14 20l-1 3c4 16 0 30-10 43a217 217 0 0 1-18 20l-25 27c-14 18-22 37-26 59v6l-4-1a122 122 0 0 0-61 5c-12 3-24 9-35 14l-24 12a62 62 0 0 1-19 5 47 47 0 0 1-28-6 8 8 0 0 1-1-1h-4a46 46 0 0 1-26 7 68 68 0 0 1-21-5l-28-13-31-14a123 123 0 0 0-40-6 125 125 0 0 0-23 3h-2a14 14 0 0 1 0-2c-3-24-13-46-28-65l-26-28-18-21c-6-9-9-19-9-30a65 65 0 0 1 1-9 3 3 0 0 0-1-4 47 47 0 0 1-15-25 69 69 0 0 1-1-18c0-9 1-19 3-28l3-36a123 123 0 0 0-15-63l-1-1a2 2 0 0 1 0-1l2-1a123 123 0 0 0 51-44l17-29 12-21a65 65 0 0 1 14-18 47 47 0 0 1 26-10 4 4 0 0 0 3-3c6-12 15-21 28-26l24-6 34-7a131 131 0 0 0 40-15 122 122 0 0 0 28-22l1-2Zm170 530 1-7a124 124 0 0 1 16-41 165 165 0 0 1 22-28l20-22a103 103 0 0 0 15-18c5-8 7-18 6-28a58 58 0 0 0-1-7 4 4 0 0 1 1-4 32 32 0 0 0 3-3 43 43 0 0 0 13-25 82 82 0 0 0 0-23l-4-27c-2-14-3-28-2-42a124 124 0 0 1 11-40l4-9-2-1-7-4a124 124 0 0 1-26-20 144 144 0 0 1-23-30l-15-29a126 126 0 0 0-13-20 44 44 0 0 0-34-17 3 3 0 0 1-2-2l-2-4a43 43 0 0 0-20-20 66 66 0 0 0-17-7l-31-5c-12-3-24-5-36-10a126 126 0 0 1-45-29l-2-2a4 4 0 0 0 0 1l-2 1a126 126 0 0 1-25 20 138 138 0 0 1-36 14l-35 7-26 6c-7 3-14 7-19 13a46 46 0 0 0-9 13c0 3-2 4-4 4a15 15 0 0 0-3 0 43 43 0 0 0-20 8 57 57 0 0 0-13 14l-14 23c-4 9-9 19-15 28-13 20-30 37-52 48a9 9 0 0 0-1 0v2a128 128 0 0 1 10 24c5 18 6 36 3 54l-4 31c-1 9-2 18-1 27a44 44 0 0 0 8 22 56 56 0 0 0 9 9 3 3 0 0 1 1 3 37 37 0 0 0-1 5 43 43 0 0 0 3 24 63 63 0 0 0 11 18l18 19c8 8 16 17 23 27a127 127 0 0 1 24 57 11 11 0 0 0 1 2l7-1a121 121 0 0 1 39 1 158 158 0 0 1 37 13l28 13a102 102 0 0 0 21 8 44 44 0 0 0 24-1 60 60 0 0 0 11-5 3 3 0 0 1 4 0l4 2a43 43 0 0 0 20 5 58 58 0 0 0 20-3l24-11c11-6 21-11 33-15 19-7 39-10 60-7Z"/><path class="prefix__cls-1" d="m461 540-7-1c-21-3-41 0-60 7-12 4-22 9-33 15l-24 11a58 58 0 0 1-20 3 43 43 0 0 1-20-5l-4-2a3 3 0 0 0-4 0 60 60 0 0 1-11 5 44 44 0 0 1-24 1 102 102 0 0 1-21-8l-28-13a158 158 0 0 0-37-13 121 121 0 0 0-39-1l-7 1a11 11 0 0 1-1-2 127 127 0 0 0-24-57c-7-10-15-19-23-27l-18-19a63 63 0 0 1-11-18 43 43 0 0 1-3-24 37 37 0 0 1 1-5 3 3 0 0 0-1-3 56 56 0 0 1-9-9 44 44 0 0 1-8-22c-1-9 0-18 1-27l4-31c3-18 2-36-3-54a128 128 0 0 0-10-24v-2a9 9 0 0 1 1 0c22-11 39-28 52-48 6-9 11-19 15-28l14-23a57 57 0 0 1 13-14 43 43 0 0 1 20-8 15 15 0 0 1 3 0c2 0 4-1 4-4a46 46 0 0 1 9-13c5-6 12-10 19-13l26-6 35-7a138 138 0 0 0 36-14 126 126 0 0 0 25-20l2-1a4 4 0 0 1 0-1l2 2a126 126 0 0 0 45 29c12 5 24 7 36 10l31 5a66 66 0 0 1 17 7 43 43 0 0 1 20 20l2 4a3 3 0 0 0 2 2h7c11 2 20 8 27 17a126 126 0 0 1 13 20l15 29a144 144 0 0 0 23 30 124 124 0 0 0 26 20l7 4 2 1-4 9a124 124 0 0 0-11 40c-1 14 0 28 2 42l4 27a82 82 0 0 1 0 23 43 43 0 0 1-13 25 32 32 0 0 1-3 3 4 4 0 0 0-1 4 58 58 0 0 1 1 8c1 10-1 19-6 27a103 103 0 0 1-15 18l-20 22a165 165 0 0 0-22 28 124 124 0 0 0-16 41l-1 7ZM21 218l2 3 5 13c7 19 8 39 6 60l-4 33a150 150 0 0 0-2 21c0 14 5 25 15 34l2 1a4 4 0 0 1 2 5 51 51 0 0 0-2 6 41 41 0 0 0 1 18c3 8 7 15 13 21l17 18c9 9 17 18 24 28a130 130 0 0 1 24 54l1 3 3-1 13-1a125 125 0 0 1 29 3 161 161 0 0 1 36 12l28 14a104 104 0 0 0 20 8c10 2 19 1 28-3l8-4a3 3 0 0 1 3 0l5 3a40 40 0 0 0 26 4 65 65 0 0 0 17-5l27-13c16-8 33-14 50-17a122 122 0 0 1 33-1l7 1a5 5 0 0 0 0-1l1-4a127 127 0 0 1 11-32c7-14 16-26 26-37l22-22a112 112 0 0 0 12-15c6-9 9-19 7-30l-1-8a3 3 0 0 1 1-3l3-4c9-8 14-18 14-30a143 143 0 0 0-2-25l-5-40a139 139 0 0 1 4-39 128 128 0 0 1 9-25l1-3-4-2a127 127 0 0 1-24-18 141 141 0 0 1-27-34l-16-30-14-22c-6-6-14-11-23-13l-9-1a3 3 0 0 1-3-2l-2-5a40 40 0 0 0-22-21l-25-7-37-7a145 145 0 0 1-35-13 124 124 0 0 1-26-19l-3-2-5 4a125 125 0 0 1-26 18 146 146 0 0 1-39 14l-31 5-25 7c-9 4-15 9-20 17l-4 9a3 3 0 0 1-3 2l-8 1c-11 2-19 8-26 17a139 139 0 0 0-12 19l-15 29a145 145 0 0 1-16 23 127 127 0 0 1-37 29l-3 2Z"/><path d="m21 218 3-2a127 127 0 0 0 37-29 145 145 0 0 0 16-23l15-29a139 139 0 0 1 12-19c7-9 15-15 26-17l8-1a3 3 0 0 0 3-2l4-9c5-8 11-13 20-17l25-7 31-5a146 146 0 0 0 39-14 125 125 0 0 0 27-18l4-4 3 2a124 124 0 0 0 26 19 145 145 0 0 0 35 13l37 7 25 7a40 40 0 0 1 22 21l2 5a3 3 0 0 0 3 2l9 1c9 2 17 7 23 13l14 22 16 30a141 141 0 0 0 27 34 127 127 0 0 0 24 18l4 2-1 3a128 128 0 0 0-9 25 139 139 0 0 0-4 39l5 40a143 143 0 0 1 2 25c0 12-5 22-14 30l-3 4a3 3 0 0 0-1 3l1 8c2 11-1 21-7 30a112 112 0 0 1-12 15l-22 22c-10 11-19 23-26 37a127 127 0 0 0-11 32l-1 4a5 5 0 0 1 0 1l-7-1a122 122 0 0 0-33 1c-17 3-34 9-50 17l-27 13a65 65 0 0 1-17 5 40 40 0 0 1-26-4l-5-3a3 3 0 0 0-3 0l-8 4c-9 4-18 5-28 3a104 104 0 0 1-20-8l-28-14a161 161 0 0 0-36-12 125 125 0 0 0-29-3l-13 1-3 1-1-3a130 130 0 0 0-24-54c-7-10-15-19-24-28l-17-18c-6-6-10-13-13-21a41 41 0 0 1-1-18 51 51 0 0 1 2-6 4 4 0 0 0-2-5l-2-1c-10-9-15-20-15-34a150 150 0 0 1 2-21l4-33c2-21 1-41-6-60l-5-13-2-3Zm532 3-2-2a135 135 0 0 1-26-20 159 159 0 0 1-26-36l-16-29a103 103 0 0 0-10-15c-6-8-14-13-24-14l-9-1a3 3 0 0 1-3-2l-4-9a36 36 0 0 0-5-8c-5-5-10-8-16-11l-29-6-34-7c-20-5-37-14-52-27l-6-4-2 2a139 139 0 0 1-21 15 151 151 0 0 1-46 17l-32 6c-8 1-15 3-22 6a34 34 0 0 0-18 17l-5 9a3 3 0 0 1-2 2l-9 1a34 34 0 0 0-18 7 51 51 0 0 0-9 11l-13 22c-6 12-13 25-21 36a136 136 0 0 1-39 36l-5 4 1 2 4 8a142 142 0 0 1 7 55l-5 40c-1 8-2 17-1 26a34 34 0 0 0 11 24l7 6a3 3 0 0 1 1 3l-2 9a33 33 0 0 0 3 22c3 6 7 12 12 17l20 21a197 197 0 0 1 22 27 134 134 0 0 1 19 42l1 6 8-1a119 119 0 0 1 27 2 147 147 0 0 1 39 11l29 14a146 146 0 0 0 21 9c10 3 20 2 30-3l6-4a3 3 0 0 1 4 0l8 4a34 34 0 0 0 25 4 88 88 0 0 0 18-7l30-14c15-7 31-13 48-15a120 120 0 0 1 23-1l8 1 1-2 2-8a139 139 0 0 1 29-53l22-24c6-6 12-12 17-20 7-9 9-19 7-30l-2-7a3 3 0 0 1 1-3l7-7a33 33 0 0 0 10-15 46 46 0 0 0 1-15l-2-17-4-37a165 165 0 0 1 0-30 136 136 0 0 1 10-38l1-2Z"/><path class="prefix__cls-1" d="m553 221-1 2a136 136 0 0 0-10 38 165 165 0 0 0 0 30l4 37 2 17a46 46 0 0 1-2 15 33 33 0 0 1-9 15l-7 7a3 3 0 0 0-1 3l2 7c2 11 0 21-7 30-5 8-11 14-17 20l-22 24a139 139 0 0 0-29 53l-2 8-1 2-8-1a120 120 0 0 0-23 1c-17 2-33 8-48 15l-30 14a88 88 0 0 1-18 7 34 34 0 0 1-25-4l-8-4a3 3 0 0 0-4 0l-6 4c-10 5-20 6-30 3a146 146 0 0 1-21-9l-29-14a147 147 0 0 0-39-11 119 119 0 0 0-27-2l-8 1-1-6a134 134 0 0 0-19-42 197 197 0 0 0-22-27l-20-21c-5-5-9-11-12-17a33 33 0 0 1-3-22l2-9a3 3 0 0 0-1-3l-7-6a34 34 0 0 1-11-24c-1-9 0-18 1-26l5-40a142 142 0 0 0-7-55l-4-8-1-3 5-3a136 136 0 0 0 39-36c8-11 15-24 21-36l13-22a51 51 0 0 1 9-11 34 34 0 0 1 18-7l9-1a3 3 0 0 0 2-2l5-9a34 34 0 0 1 18-17c7-3 14-5 22-6l32-6a151 151 0 0 0 46-17 139 139 0 0 0 21-15l2-2 6 5c15 12 33 21 52 26l34 7c10 2 20 3 29 7 6 2 11 5 16 10a36 36 0 0 1 5 8l4 9a3 3 0 0 0 3 2l9 1c10 1 18 6 24 14a103 103 0 0 1 10 15l16 29a159 159 0 0 0 26 36 135 135 0 0 0 26 20l2 2Zm-519 1 1 3a136 136 0 0 1 6 19c4 18 5 36 3 54l-5 35a89 89 0 0 0-1 19 31 31 0 0 0 11 21l7 7a3 3 0 0 1 1 4l-2 10a30 30 0 0 0 1 15 42 42 0 0 0 7 13l17 19c9 9 18 18 25 28 13 16 21 33 26 52 1 4 1 4 5 4a140 140 0 0 1 28 1 158 158 0 0 1 43 13l29 14a126 126 0 0 0 18 7c9 3 18 3 27-3l9-5a3 3 0 0 1 3 0l9 6a31 31 0 0 0 23 3l21-8c12-6 23-12 36-17a165 165 0 0 1 30-9 138 138 0 0 1 34-2h4l2-6a131 131 0 0 1 9-25c7-14 17-27 28-39l20-21a102 102 0 0 0 14-17 30 30 0 0 0 4-21l-2-11a4 4 0 0 1 2-5l8-8a29 29 0 0 0 9-17 52 52 0 0 0 0-14l-3-23c-2-12-3-24-3-37-1-19 2-38 9-56l1-3v-1l-3-1a135 135 0 0 1-28-24 160 160 0 0 1-21-29l-15-29c-4-6-7-13-12-19a30 30 0 0 0-21-11l-10-1a4 4 0 0 1-4-2l-4-10a30 30 0 0 0-12-13 44 44 0 0 0-13-6l-24-4-33-7c-20-6-39-15-55-28l-2-2-2 2a136 136 0 0 1-27 17 146 146 0 0 1-34 12l-34 7a155 155 0 0 0-21 5c-10 3-17 9-21 19l-4 8a3 3 0 0 1-3 2l-11 1a29 29 0 0 0-16 7 48 48 0 0 0-11 13l-13 24c-6 13-13 25-22 36a138 138 0 0 1-35 32l-3 2Z"/><path d="m34 222 3-2a138 138 0 0 0 35-32c9-11 16-23 22-35l13-24a48 48 0 0 1 11-14 29 29 0 0 1 16-7l11-1a3 3 0 0 0 3-2l4-8c4-10 11-16 21-19a155 155 0 0 1 21-5l34-7a146 146 0 0 0 34-12 136 136 0 0 0 27-17l2-2 2 2c16 13 35 22 55 28l33 7 24 4a44 44 0 0 1 13 6 30 30 0 0 1 12 13l4 10a4 4 0 0 0 4 2l10 1a30 30 0 0 1 21 11c5 6 9 13 12 19l15 29a160 160 0 0 0 21 29 135 135 0 0 0 28 24l3 1v1l-1 3c-7 18-10 37-9 56 0 13 2 25 3 37l3 24a52 52 0 0 1 0 13 29 29 0 0 1-9 17l-8 8a4 4 0 0 0-2 5l2 11a30 30 0 0 1-4 21 102 102 0 0 1-14 17l-20 21c-11 12-21 25-28 40a131 131 0 0 0-9 24l-2 6h-4a138 138 0 0 0-34 2 165 165 0 0 0-30 9c-13 5-24 11-36 17l-21 8a31 31 0 0 1-23-3l-9-6a3 3 0 0 0-3 0l-9 5c-9 6-18 6-27 3a126 126 0 0 1-18-7l-29-14a158 158 0 0 0-43-13 140 140 0 0 0-28-1c-4 0-4 0-5-4-5-19-13-36-26-52-7-10-16-19-25-28l-17-19a42 42 0 0 1-7-13 30 30 0 0 1-1-15l2-10a3 3 0 0 0-1-4l-7-7a31 31 0 0 1-11-21 89 89 0 0 1 1-19l5-36c2-17 1-35-3-53a136 136 0 0 0-6-19l-1-3ZM291 40l-2 2-16 11c-12 7-26 12-40 16-13 4-26 6-39 8l-22 5c-7 2-13 8-16 15l-5 12a3 3 0 0 1-3 2l-13 1a26 26 0 0 0-18 10 93 93 0 0 0-8 11l-10 20c-8 14-15 27-25 39a143 143 0 0 1-33 30l-2 2 1 1c8 21 10 42 9 64l-5 36a154 154 0 0 0-2 23c0 9 3 17 10 23l9 8a3 3 0 0 1 1 3l-2 12a27 27 0 0 0 3 21l14 17 27 28c14 18 25 37 31 58l1 2h2a144 144 0 0 1 37 4c15 3 30 9 44 16l25 12a101 101 0 0 0 13 4 26 26 0 0 0 21-2l11-6a3 3 0 0 1 4 0l11 6a26 26 0 0 0 17 3 49 49 0 0 0 13-3l21-10 20-10c22-10 45-15 70-14h2l1-5a149 149 0 0 1 26-49 307 307 0 0 1 21-23l17-19a52 52 0 0 0 9-11 24 24 0 0 0 2-15l-3-15a4 4 0 0 1 2-4l11-11a24 24 0 0 0 7-14 55 55 0 0 0 0-15l-4-25a278 278 0 0 1-3-33 145 145 0 0 1 5-40l4-15c1-2 1-2-1-4h-1a140 140 0 0 1-21-17 156 156 0 0 1-25-33l-15-29c-4-6-7-13-12-19-5-7-12-11-21-12l-11-1a3 3 0 0 1-3-2l-6-12a41 41 0 0 0-4-7c-4-4-8-6-13-8l-24-6c-13-2-27-4-40-8-17-5-33-12-48-23Z"/><path class="prefix__cls-1" d="m291 40 6 5c15 11 31 18 48 23 13 4 26 6 40 8l24 6c5 2 9 4 13 8a41 41 0 0 1 4 7l6 12a3 3 0 0 0 3 2l11 1c9 1 16 5 21 12 5 6 8 13 12 19l15 29a156 156 0 0 0 25 33 140 140 0 0 0 21 17h1c2 2 2 2 1 4l-4 15a145 145 0 0 0-5 40 278 278 0 0 0 3 33l4 25a55 55 0 0 1-1 15 24 24 0 0 1-6 14l-11 11a4 4 0 0 0-2 4l3 15a24 24 0 0 1-2 15 52 52 0 0 1-9 11l-17 19a307 307 0 0 0-21 23 149 149 0 0 0-26 49l-1 5h-2c-25-1-48 5-70 14l-20 10-21 10a49 49 0 0 1-13 3 26 26 0 0 1-17-3l-11-6a3 3 0 0 0-4 0l-10 6a26 26 0 0 1-22 3 101 101 0 0 1-13-5l-25-12c-14-7-28-13-44-16a144 144 0 0 0-36-4h-3l-1-2c-6-21-17-40-31-57l-27-29-14-17a27 27 0 0 1-3-21l2-12a3 3 0 0 0-1-3l-9-8c-7-6-10-14-10-23a154 154 0 0 1 2-23l5-36c1-21-1-43-9-63l-1-2 3-2a143 143 0 0 0 32-30c10-12 17-25 25-39l10-20a93 93 0 0 1 8-11 26 26 0 0 1 18-10l13-1a3 3 0 0 0 3-2l5-12c3-7 9-12 16-15s14-4 22-5c13-2 26-4 39-8 14-4 28-9 40-16l16-11 2-2Zm-21 207h1a7 7 0 0 1 2 0h3a18 18 0 0 0 6-1c0-3-3-5-2-8a2 2 0 0 0-2 0l3 7-4 1a4 4 0 0 1-4-1l-2-2-1 2-2 3a2 2 0 0 0 2-1Zm29-3 4-4-3-1c1 2-1 4-1 5l-3-2c-2-3-5-4-7-3l7 3 2 3h1l-1 1a4 4 0 0 1-3-1l-2 1h6v-1Zm42 85h-2c0 2 0 3-2 4l-1 1v1l4-4a8 8 0 0 1 1-2 6 6 0 0 0 1-2l-2-1 1 3Zm-87 10a8 8 0 0 0-1 1c-2 2-3 2-5 1a6 6 0 0 1-3-5 3 3 0 0 0 0 3 8 8 0 0 0 4 4c2 0 3 0 3-2l2-2 1-3v-1c-2 1-2 1-1 4Zm9 11 3 1c1 1 2 0 2-2-1 2-2 2-3 0l-2 1-2-3c-3 0-3 0-4-2a2 2 0 0 0 0-1 1 1 0 0 0-2-1v2a16 16 0 0 1 1 2l-4-1c1 1 2 2 4 1h1l6 3Zm37 7-3-1h-4l2 1c-2 1-4 1-6-1h-3c0 1-1 2-2 1a7 7 0 0 1-1-1l-2-3 2 3-2 1a10 10 0 0 1-2 0 17 17 0 0 1-2-1l1 1a20 20 0 0 0 4 1h17a5 5 0 0 0 1-1l7-1c-1-3-1-3-3-2l-4 3Zm-66-36a4 4 0 0 1 1 1 5 5 0 0 0 2 5l1 1a9 9 0 0 0 0 3 2 2 0 0 0 2 0c1 0 3-2 3-4a19 19 0 0 1-2 2 2 2 0 0 1-2 1 2 2 0 0 1-1-2 11 11 0 0 1 2-2l1-2c-2 0-2 2-3 2-2-1-3-2-1-4l1-2c-2 0-2-1-3-2a6 6 0 0 0-3-2c0 2 0 4 2 5Zm107-45 2 6 2-2-1 1c-2-1-1-3-1-4h-2l-2-6a8 8 0 0 1-2-1 4 4 0 0 1-1-4 22 22 0 0 0-2-7l-4 1c-2 0-3-1-2-3s0-3-2-4c1 1 2 3 1 5a24 24 0 0 1-6-4 7 7 0 0 0 3 4l6 4a16 16 0 0 1 3 2l4 7a8 8 0 0 1 2 2 15 15 0 0 0 2 3Zm94 110h-3c-4-3-9-4-14-2a10 10 0 0 1-1 1c-1-4-2-7-5-9s-6-3-10-3l-2 7a30 30 0 0 0 0 9 118 118 0 0 0 3 12c0 2 0 3-2 4l-4 4 3 3a9 9 0 0 0 1-1l6-5a6 6 0 0 1 3-1 46 46 0 0 0 9-2 25 25 0 0 0 16-17v-3Zm-296-91 2 29h-1c-2-6-7-10-12-13a53 53 0 0 1-12-9 7 7 0 0 0-1 0v6c1 7 3 13 7 18a37 37 0 0 0 10 10l11 5a4 4 0 0 1 2 3l5 17a8 8 0 0 1 0 1c-4-4-8-7-13-9l-14-7a8 8 0 0 0-1-1 9 9 0 0 0 0 2l2 8a32 32 0 0 0 13 18c6 4 13 7 21 9a4 4 0 0 0 1-1l12 18a103 103 0 0 0 14 15l15 14h-1a38 38 0 0 0-12 1l-12 2a50 50 0 0 1-6 1 9 9 0 0 0 1 1 46 46 0 0 0 11 9 31 31 0 0 0 15 4c6 0 13-2 19-4 2 0 4-2 6-1l6 2c13 6 26 11 40 13l8 2a109 109 0 0 0-20 7 210 210 0 0 0-18 11 14 14 0 0 0 1 1l12 6a2 2 0 0 0 3 0 60 60 0 0 1 12-10l24-13a6 6 0 0 1 6 0l10 6c8 4 16 8 23 15l3 3c4-2 14-7 15-9a141 141 0 0 0-41-17 7 7 0 0 1 2-1 203 203 0 0 0 27-6 199 199 0 0 0 28-10 3 3 0 0 1 3 0 29 29 0 0 0 16 2c5 0 10-1 13-5a5 5 0 0 1 1-1v-1l-2-5a13 13 0 0 0-9-4h-2c1-4 2-7 1-11s-5-6-8-7c-6 1-8 5-10 10l-2 4-3 12a4 4 0 0 1-3 2l-23 8a170 170 0 0 1-49 8 22 22 0 0 1-5 0l-52-12c-7-1-5 0-6-6-1-8-2-16-5-23-4-11-11-18-21-22h-2l1 2 3 10 2 8a28 28 0 0 0 7 14 5 5 0 0 1 1 1 116 116 0 0 1-18-14 2 2 0 0 1-1-2l2-12a38 38 0 0 0-2-18c-3-7-7-13-13-17l-2-1a9 9 0 0 0 0 1 75 75 0 0 1 0 17v14a9 9 0 0 1 0 1 20 20 0 0 1-1-2l-8-12a3 3 0 0 1 0-3l5-11a41 41 0 0 0 3-17c0-8-4-15-8-22h-1a49 49 0 0 1-1 5l-5 14a29 29 0 0 0-2 15 5 5 0 0 1 0 1l-1-1-6-18a2 2 0 0 1 1-3 76 76 0 0 0 9-15 33 33 0 0 0 4-16 42 42 0 0 0-4-15 11 11 0 0 0-1-2c-2 7-6 12-9 17a26 26 0 0 0-4 12 5 5 0 0 1 0 1v-1l-2-18a3 3 0 0 1 2-2l8-7c11-9 16-20 14-34l-1-3-5 5-8 8a28 28 0 0 0-8 13 17 17 0 0 1-1 1 120 120 0 0 1 3-26 7 7 0 0 0 2 0c6-3 12-5 17-9a25 25 0 0 0 11-18 25 25 0 0 0 1-8l-2 2-7 4-6 3a21 21 0 0 0-10 9 12 12 0 0 1 0 1 4 4 0 0 1 0-2l7-17a3 3 0 0 1 3-3l12-1c12-2 20-9 24-21a21 21 0 0 0 1-2c-6 3-12 3-17 5a22 22 0 0 0-11 5l-5 6-1 1a148 148 0 0 1 37-43l2-8a43 43 0 0 0 1-7v-8a8 8 0 0 0-1 1c-5 3-9 8-10 14a90 90 0 0 0 0 12 4 4 0 0 1-2 3l-9 10a11 11 0 0 1-2 1 4 4 0 0 1 1-2 16 16 0 0 0 1-12v-2a36 36 0 0 1-2-11 8 8 0 0 0 0-2 4 4 0 0 0 0 1l-2 1c-7 6-10 14-9 23l3 12a3 3 0 0 1-1 3l-6 9-1 1v-3a20 20 0 0 0 0-8l-2-6a58 58 0 0 1-2-12 4 4 0 0 0-1-1l-2 2c-6 9-9 18-6 28l4 13a4 4 0 0 1 0 4l-7 14v1-7l-5-13-8-14a5 5 0 0 0 0-1 9 9 0 0 0-1 1c-6 11-7 23 0 35l8 12a4 4 0 0 1 1 4 158 158 0 0 0-5 31 5 5 0 0 1 0 1 2 2 0 0 1-1-1c0-8-3-15-8-21l-9-13a6 6 0 0 0-1 0 4 4 0 0 0-1 0c-3 9-3 18 1 27 4 8 10 14 16 20a7 7 0 0 0 1 1Zm258 11v-1h-4l-49-3h-13l-2-2a20 20 0 0 1 3 0l16 1 53 2c4 0 7-2 10-4l-4-2a10 10 0 0 0-6-1h-14l-42 2h-14l-2-1 17-1 17-1 17-1 17-1-10-5a4 4 0 0 0-2 0l-35 4-19 2a9 9 0 0 1-2 0l26-4 26-4 1-1-7-3a5 5 0 0 0-3 0l-22 5-19 4h-3a17 17 0 0 1 2-1l6-2a3 3 0 0 0 1 0l-1-2-8 2 8-4-1-2a45 45 0 0 1-4 2h-5l9-4-1-2-5 2-4 2 4-3 4-3-1-2-5 3-4 2 2-2 5-4h1l-2-2-4 3-4 2 7-7-1-1-8 5 3-3 4-4-2-1-7 6 2-4 4-3-2-2-3 4c-1 1-2 3-4 3l5-8-2-1-2 4-3 3c-1-2 1-3 1-4l3-4-2-2-3 5-3 4 4-9-2-1-4 8 2-9-2-1-1 5-2 4v-1l2-9h-3l-1 5c-1 2 0 3-2 4l2-9-2-1-1 2-1 6a7 7 0 0 1 0 1h-1v-9h-2v5l-1 4-1-9h-2v4c0 1 1 3-1 5l-1-9h-2v10l-2-10-2 1 1 4v5l-3-9-2 1 1 4v5l-3-9-2 1 1 3 2 4a4 4 0 0 1 0 2h-1l-3-9-3 2 2 4 2 4h-1l-4-8-2 2 2 4 2 4-6-7-2 1 3 4 2 4c-2 0-2-2-3-3l-3-4-2 2 3 3c1 1 3 2 3 5l-8-7-1 1 3 4 3 3-7-5-2 1 4 4 3 3-8-5-1 2 4 3c1 1 3 1 3 3l-8-5-1 2 7 5c-1 1-2 0-4-1l-4-2-1 2 4 2 4 3-9-3-1 2 5 2c2 1 3 0 4 2l-9-2-1 2 5 1 4 2h-3l-40-9a5 5 0 0 0-2 0l-8 3a16 16 0 0 0 1 1l35 5 15 2 2 1a4 4 0 0 1-3 0l-10-1-43-5a7 7 0 0 0-3 0l-8 4a19 19 0 0 0-2 1h3l10 1 41 2h12c1 1 2 0 2 2a13 13 0 0 1-2 0l-13-1-57-1c-4-1-6 2-9 3a39 39 0 0 0 3 2 12 12 0 0 0 7 1l29-1h26l14-1 3 1-18 1-17 1-17 1-17 1a29 29 0 0 0 4 3c4 2 8 3 13 2a4 4 0 0 1 1 0l34-5 15-1h2l-18 3-18 3-17 2a44 44 0 0 0 6 4 5 5 0 0 0 4 0l28-6 14-3 1 1-9 2 1 2 9-2-9 4 1 2 5-1c2 0 2-2 4-1l-8 4 1 2 3-1 4-3h2v1l-8 5 1 2 4-3c1-1 2-2 4-1l-7 5 1 2 8-5-7 7 2 1 4-3c2-1 1-2 4-2l-7 7 2 2 6-7h1l-6 8 2 1 3-4c1-1 1-3 3-3l-5 8 2 1 3-4 3-3-4 8 2 2 2-4 3-4-2 4-2 5 2 1 2-5c0-2 1-3 3-4l-3 9 2 1 2-5c1-2 0-3 2-4v1l-2 9h2l3-9-1 9 2 1 2-9v9h2l1-5c0-1-1-3 1-4v9h2v-4l1-5 1 9h3l-1-5v-4c2 3 1 6 2 9l3-1-1-4v-5l2 9 3-1-2-4v-5l3 9h1a9 9 0 0 0 1-1l-2-9 4 9 2-2-3-6v-3l5 9 2-2c-1-3-4-5-4-8l3 4 2 4 2-2-2-4c0-1-3-2-3-4l7 7 2-2-4-3-2-4 7 6 2-2-4-3c-1-1-2-1-2-3l7 6 1-2-7-7 8 5 2-2-4-2-4-3 1-1 8 5 1-2-4-3-4-3 9 4 1-2-5-2c-2-1-3-1-3-3l8 3 1-2-4-2c-1-1-4 0-5-2l10 2v-2l-4-1c-1 0-3 0-5-2h2l39 9 8-1a44 44 0 0 1 4-2 2 2 0 0 0-1-1l-37-5-13-2-1-1h3l47 6c5 0 10 0 14-3a37 37 0 0 1 4-1Zm90-118-11 3a103 103 0 0 1-10 4l7-9 7-8-2-5-3-4-28 19 3 5 20-13v1l-16 18 3 5 24-8v1l-20 13 3 5 29-18Zm-48-11 23-25-8-7-19 12 11-20-8-7-23 25 5 4 3-3 2-3 3-3 3-3 2-3 3-2-11 22 4 4 21-13-16 17 2 2 3 3Zm-149-67-2-34-10 1-5 22-7-21a85 85 0 0 0-10 1l2 33h6l-1-24 8 23h6l5-24 2 23Zm-89 389c3 0 5 2 5 6l2 11 1 1a32 32 0 0 0 7 4l-3-18h3c4 0 7-2 8-7a8 8 0 0 0-3-10 19 19 0 0 0-3-1l-14-7a7 7 0 0 0-1-1l-15 31 7 3 6-12Zm-87-116-19 7a60 60 0 0 1 5-7l8-11 1-2a60 60 0 0 0-3-6l-31 12 2 6 20-7a24 24 0 0 1-3 4l-11 14-1 2 3 6c3-1 30-11 31-13l-2-4a15 15 0 0 0 0-1ZM71 244l32 11 2-6-13-5c1-3 2-5 5-6l11-3 2-1a25 25 0 0 0 2-7c-6 1-11 2-17 5v-3a8 8 0 0 0-5-7c-4-2-10-2-12 4l-7 18Zm410 22 3 16a11 11 0 0 0 8 9 23 23 0 0 0 20-3 11 11 0 0 0 5-10l-2-16-1-1ZM184 418a13 13 0 0 0-1-2l-8-11a31 31 0 0 0-6-5l-13-4c-6 0-12-1-17-3l-1 1 4 7a33 33 0 0 0 20 15 61 61 0 0 0 14 2h8Zm307-3-29-18-4 6 13 8-7 11-13-8-3 6 28 18 4-6-11-7 7-11 11 7ZM101 268l-6-1-3 19-9-2 3-16-6-1-3 16-7-1 2-9 1-8-6-1-3 25 33 4 4-25Zm348 73a11 11 0 0 0-7-2l-7 1c-3-6-9-7-14-7a17 17 0 0 0-1 13l2 6 3 6a5 5 0 0 1 0 4 2 2 0 0 0 0 2 17 17 0 0 0 3 2l1-3a4 4 0 0 1 3-4 28 28 0 0 0 11-7 20 20 0 0 0 6-11ZM110 208l-3 6c5 2 9 2 13-1a19 19 0 0 0 7-13 8 8 0 0 0 0-2c-1-7-9-12-16-7l-5 5a31 31 0 0 1-4 3 2 2 0 0 1-4-2 9 9 0 0 1 3-6l5-1a38 38 0 0 0 3-6c-4-2-7-2-11 1a19 19 0 0 0-6 11 9 9 0 0 0 2 8c3 3 8 4 12 1a73 73 0 0 0 6-5l3-3c2-2 5-1 5 2 1 5-3 10-8 9Zm259-82 11-32-7-2-4 12-12-4 4-13-7-2-10 32 6 2 5-13 12 4-2 6-2 7ZM223 96c-1-3-4-6-8-6a18 18 0 0 0-13 5 9 9 0 0 0 5 15 56 56 0 0 0 8 0h5c3 0 4 3 3 6-3 4-9 4-12 1l-2-2-5 3a11 11 0 0 0 12 7 22 22 0 0 0 10-4 10 10 0 0 0 3-4c3-6-1-14-8-14h-8a36 36 0 0 1-5 1c-2-1-3-3-2-5a9 9 0 0 1 6-3c2 0 4 1 5 3a4 4 0 0 0 1 0Zm35 43a17 17 0 0 0-2 0h-12a44 44 0 0 0-15 4 26 26 0 0 0-14 16 9 9 0 0 0 0 1l4 1c10 1 19-2 27-9l11-12a9 9 0 0 0 1-1Zm76 389v-2l-5-7-11-21c-1-2-2-2-4-2l-2 1c-3 0-3 0-3 2l-8 31v2l6-1 2-1a48 48 0 0 0 1-5 2 2 0 0 1 2-2l9-1a2 2 0 0 1 3 1l2 5a2 2 0 0 0 2 1Zm133-140a14 14 0 0 0 1 0h34a2 2 0 0 0 2-2 27 27 0 0 1 1-4c1-1 1-2-1-3l-24-22a13 13 0 0 0-1-1l-2 4c-1 3-1 3 2 5l3 3-4 11a2 2 0 0 1-2 2h-5l-2 1-2 6Zm-108 98 5 12 6 11c2 3 6 5 10 4a21 21 0 0 0 11-5 9 9 0 0 0 3-10 25 25 0 0 0-1-3l-9-19a11 11 0 0 0-1-2l-6 3 1 2 6 14 3 6a4 4 0 0 1-2 5c-3 4-8 3-11-2v-1l-7-13-2-5Zm-250-44 1-1 16-10a35 35 0 0 0 4-3 10 10 0 0 0 3-10 21 21 0 0 0-6-10 9 9 0 0 0-11-2 28 28 0 0 0-3 1l-17 11a8 8 0 0 0-1 1 32 32 0 0 0 3 6l3-2 13-8 5-3a4 4 0 0 1 4 1c5 3 5 8 0 11v1l-16 9-2 2 4 6Zm371-186 1-1 12-11 13-11a2 2 0 0 0 1-3 23 23 0 0 1-2-3 2 2 0 0 0-2-2l-32-1h-2l1 5a2 2 0 0 0 3 2h5a2 2 0 0 1 1 1l4 11-1 2-4 3-1 2 3 6Zm-73-108 7-36-6-4-29 22 6 4 5-4a2 2 0 0 1 3 0l8 5a2 2 0 0 1 1 3 42 42 0 0 0-1 4l1 2 5 4Zm-231-9 10-7a2 2 0 0 1 2 1l5 3h1a27 27 0 0 0 6-3l-29-22-4 3c-3 1-2 1-2 4l5 23 1 10 6-4-1-8Zm132-62v2l-2 10-1 13a10 10 0 0 0 7 9 22 22 0 0 0 11 1 9 9 0 0 0 8-7 32 32 0 0 0 1-4l2-18v-3l-6-1-1 2-1 13-1 9c-1 2-3 4-6 4a13 13 0 0 1-3-1 5 5 0 0 1-4-5 34 34 0 0 1 0-4l2-17a18 18 0 0 0 0-3ZM63 306v5c0 2 0 2 3 3l19 5 3 1-2 1-12 5-8 3-1 1a21 21 0 0 0 0 7l8-3 23-10c2-1 2-1 2-3v-3c0-3 0-3-3-3l-30-9h-2Zm391-9a32 32 0 0 0-5 0 12 12 0 0 0-4 1 25 25 0 0 0-4 3c-4-5-9-5-14-4 0 7 2 12 6 16a20 20 0 0 0 3 3c2 1 3 3 2 5v1l3 1c0-4 2-5 4-7a22 22 0 0 0 7-9l2-10Zm48 45 11-4c4-1 3-1 4-5l1-4-3 1-17 7a6 6 0 0 1-3 0l-11-2a17 17 0 0 0-2 0l-1 7h2l9 2a9 9 0 0 1 5 2l14 12 1 2 1-3c1-6 2-4-3-8l-8-7ZM137 145l19 20 5-4-19-21 7-7-4-4-19 18 4 5Zm75 35h-2l-11 1c-4 0-8 1-12 5l-9 10v1a48 48 0 0 0 15 0 19 19 0 0 0 8-3c5-4 8-9 11-14Zm-61 295a10 10 0 1 0-10-10 10 10 0 0 0 10 10Zm281 0a10 10 0 1 0-11-10 10 10 0 0 0 11 10Zm10-191v-1a6 6 0 0 1 2-5 18 18 0 0 0 5-11 14 14 0 0 0 0-7h-6l-4 5c-4-4-8-4-13-1a11 11 0 0 0 4 9l6 5c2 2 4 3 4 6Zm-119 75 1 1 19 37c2 3 5 4 8 6v-5a9 9 0 0 0-2-5l-18-29-4-7Zm-32 61 2-4a13 13 0 0 0 2-8l-1-11-1-28a15 15 0 0 0 0-2h-4v2l-1 40c-1 4 2 7 3 11Zm-35-63-2 2-20 32a15 15 0 0 0-3 9v3l5-3a9 9 0 0 0 3-3l19-36 1-2Zm139 2c-2-3-4-7-8-8l-28-15-8-5-2 4h1l36 23a4 4 0 0 0 1 1h8Zm-161-24-2-4-4 2-33 18c-4 2-5 5-8 8h6a11 11 0 0 0 5-2l25-16Zm117-68 1-1 37-20 6-7-6 1a10 10 0 0 0-4 1l-34 21-2 2Zm-117-3-2-1-34-22c-3-2-7-2-10-2a40 40 0 0 0 2 4 11 11 0 0 0 5 4l23 13 14 7 2-3Zm25-25-1-2-19-35-8-7 1 5a11 11 0 0 0 2 6l20 32 2 3Zm92-44-5 4a9 9 0 0 0-2 2l-20 36-1 2 4 2a15 15 0 0 0 1-1l22-36a5 5 0 0 0 1-2v-7Zm-60-16-3 7a3 3 0 0 0 0 2l1 40v3h4v-2l2-40c0-4-2-6-4-10Zm-31 317-5 33a24 24 0 0 0 7 1l5-34Zm259-189h-34a12 12 0 0 0 0 6h34Zm-416 44-2-7-33 8 2 7Zm9-186 26 21 4-6-26-21Zm326 64c-4-1-5 3-7 5-5-1-7-1-10 2a8 8 0 0 0 4 7l6 3c2 1 4 2 4 4h2v-6a16 16 0 0 0 1-15Zm-211-62h-13a17 17 0 0 0-10 3l-6 5a12 12 0 0 0-1 1c6 2 13 3 19 1 5-2 8-5 12-10Zm34 192-18 35 8-5a7 7 0 0 0 3-3l7-16 3-9Zm88 29h1v-2l-1-7a8 8 0 0 0-2-5l-14-19-2-2-3 3 21 32Zm-54-21 2 39 4-9a9 9 0 0 0 1-5l-3-23v-3Zm57-38 34 18-5-8a6 6 0 0 0-3-3l-16-7-9-3-1 3Zm-150 28v1l10-1a8 8 0 0 0 4-2l19-14 2-2-2-3Zm223-133 1-1c-1-3 1-6 1-9a25 25 0 0 0 0-6l-3-2c-3 0-4 0-5 2v3a22 22 0 0 0-5 0c-2 0-2 2-3 3 0 4 2 5 5 5l3 1c4 1 4 1 6 4Zm-45 134v-1l-32-21-3 4h1l21 16a4 4 0 0 0 1 1l12 1Zm-42 36h1l-18-34-3 1a5 5 0 0 0 0 1l10 24a4 4 0 0 0 1 2l9 6Zm-55-28a7 7 0 0 0 0 2l-3 25a5 5 0 0 0 0 3l4 8a10 10 0 0 0 1 1l2-38Zm-33-13a14 14 0 0 1 0 1l-15 21a6 6 0 0 0-1 2l-1 9a11 11 0 0 0 0 2l21-32-4-3Zm-53-102-1 1 7 9a4 4 0 0 0 1 1l23 9a17 17 0 0 0 2 1l2-3Zm-1 95c5-1 33-16 35-17l-2-3a16 16 0 0 0-2 0l-23 10a4 4 0 0 0-1 1l-7 9Zm152-84 32-22-11 1a4 4 0 0 0-2 1l-20 15-1 2Zm6 10 2-1 19-8a13 13 0 0 0 7-5l4-6v-1l-34 18 1 2a16 16 0 0 0 1 1Zm-151-32v1l32 21 2-3a5 5 0 0 0-1-1l-21-16a4 4 0 0 0-1-1l-11-1Zm30-29 1 9a8 8 0 0 0 1 4l14 19 2 2 3-3-21-31Zm117 0-1-1-20 33 3 2a4 4 0 0 0 0-1l16-21a4 4 0 0 0 1-2l1-10Zm-106-7 17 34 3-1v-1l-10-24a4 4 0 0 0-1-2l-9-6Zm95 1-1-1a6 6 0 0 0-1 1l-7 5a6 6 0 0 0-2 2l-9 23-1 2 4 1 17-33Zm-54-12-4 9a6 6 0 0 0-1 3l2 19 1 8 4-1-2-38Zm13 0-1 1-2 37 4 1v-2l3-22a14 14 0 0 0-1-9l-3-6Zm99 3a5 5 0 0 0 4 2 41 41 0 0 0 6 2l5 2h2l-2-6a23 23 0 0 0 0-6 6 6 0 0 0-4-5l-2 2a31 31 0 0 0-2 5c-4-1-5 0-7 4Zm-14-15a25 25 0 0 0 4 1 44 44 0 0 0 6 1 3 3 0 0 1 3 1l1 1v-2l-1-4a13 13 0 0 0 0-4 12 12 0 0 0-2-4c-2-2-3-2-4 0a8 8 0 0 0-1 3v2c-5 0-6 1-6 5ZM238 341l-19 15h1l8-1a4 4 0 0 0 1-1l11-9a11 11 0 0 0 1-1Zm19 43a10 10 0 0 0 2 0l4-4a5 5 0 0 0 2-2l4-12 1-3-4-1-9 22Zm47 6h1l3-8a3 3 0 0 0 0-1l-3-14a5 5 0 0 0 0-2l-3 1a5 5 0 0 0-1 0Zm29-38 15 19v-7a5 5 0 0 0-2-3 1024 1024 0 0 1-10-11Zm21-28 22 9-4-6a5 5 0 0 0-2-2l-12-4-3-1Zm-30 60h1l-9-22-4 1a4 4 0 0 0 0 1l5 14a3 3 0 0 0 1 1l6 5Zm-47 5h1l3-23-4-1-3 16a2 2 0 0 0 0 1l3 7Zm-31-40-7 9c-2 3-5 5-4 9a18 18 0 0 1-1 2v2l15-19Zm116 7-18-15-2 3a4 4 0 0 0 0 1l11 10a3 3 0 0 0 1 0 71 71 0 0 0 8 1Zm-135-36-2 1-7 2c-7 2-7 2-11 8a10 10 0 0 0-1 2l22-9-1-4Zm136-78-8 1a5 5 0 0 0-2 1l-10 8a16 16 0 0 1-1 2l1 2a14 14 0 0 1 1 1Zm-135 32-22-8 4 5a5 5 0 0 0 3 2l12 4 2 1Zm7-46h-1l1 7a5 5 0 0 0 1 2l9 10a12 12 0 0 0 1 1l3-2Zm141 38-22 8 1 4a4 4 0 0 0 1 0l14-5a3 3 0 0 0 1 0l5-7Zm-156-24 18 15 3-3-12-11a2 2 0 0 0-1 0l-8-1Zm128-14h-1l-14 18 3 2a3 3 0 0 0 1 0l10-11a2 2 0 0 0 0-1l1-8Zm-32 8 9-22a39 39 0 0 0-6 4 5 5 0 0 0-2 3l-4 11v3Zm-38-27-4 7a4 4 0 0 0 0 2l3 13a13 13 0 0 0 1 2l2-1h1l-3-23Zm27 0-4 23 4 1v-1l3-14a3 3 0 0 0 0-2l-3-7Zm-47 5v1l8 21 4-1v-1l-5-14a3 3 0 0 0-1-1l-6-5Zm116-50c-2 0-4 1-4 4a16 16 0 0 0 3 1 17 17 0 0 0 3 0l4 1c1 1 2 0 2-1-2-1-2-2-2-4a11 11 0 0 0-1-4 4 4 0 0 0-3-3c-2 2-2 4-2 6Zm-6-4a20 20 0 0 1-1-4 8 8 0 0 0-5-6c-3 1-1 3-2 5-3 0-4 2-3 4a12 12 0 0 0 6 1 7 7 0 0 1 4 0 4 4 0 0 0 1 0Zm-30 189 9 9v-3h3l-10-10Zm-65 29 3-13-4-1-4 13 3-2Zm34-13 3 13 2-3 3 2-4-13Zm-92-46-1 3 13-4-2-3-13 3Zm27 26-10 10h4v3l9-9-3-4Zm115-30-1 4 13 3-2-2 3-2Zm13-35-3-1 2-3-13 4 1 3Zm-157 0a66 66 0 0 0 12 3l1-3-12-4 1 3Zm134-40-9 10 2 2 10-8-3-1Zm-105 13 3-3-9-10v3l-4 1Zm69-19 3-13-2 2-2-3-3 13Zm-43-13 4 13 4-1-3-13-2 3Zm86-70-2-3a5 5 0 0 0-4-4 7 7 0 0 0-1 2 2 2 0 0 1-1 3l-2 4ZM244 272a21 21 0 0 0 3-3c1-1 0-2-1-3a28 28 0 0 0-5 0l-1 1h3c2 0 2 1 2 2a2 2 0 0 1-2 1h-4a8 8 0 0 0-1 0c1 2 2 2 3 2s2 1 1 3a3 3 0 0 1-3 1l-3-1v4a16 16 0 0 0-1 3 8 8 0 0 0 1 2 9 9 0 0 0 3-5 4 4 0 0 1 2-2 4 4 0 0 0 2-4l1-1Zm79 75a2 2 0 0 0 3 0 31 31 0 0 0 3-3 29 29 0 0 1 5-5 15 15 0 0 0 2-3l-6 2c-2 2 1 4-2 5l-4-1c2 1 3 0 4 2a7 7 0 0 1-5 3Zm-69-97a6 6 0 0 0 1 0 3 3 0 0 1 1 4l-3 1-6 1-2 2h2c3-2 7-3 10-2a3 3 0 0 1-2 2l-1 2 4-4-1-2-1-5Zm92 69 1 1-1 6c2-3 2-5 2-7l-2-2a2 2 0 0 0-3 2 2 2 0 0 0 1 2h1l1-1Zm-43-74v3a12 12 0 0 0 8 3c-3-2-7-3-8-6Zm-39 109a9 9 0 0 0 6 2c2 0 2-1 2-2a3 3 0 0 0-1-3 4 4 0 0 0 0 2c1 1 1 2-1 2a8 8 0 0 1-2 0l-4-1Zm46 4 2 1a8 8 0 0 0 5-4c-2 2-4 3-7 3Zm-62-95a8 8 0 0 0-7-1l7 1Zm13-17 3 6a8 8 0 0 0-3-6Zm83 38a7 7 0 0 0 5-3l-5 3Zm-58-46-1 1 1 5a8 8 0 0 0 0-6Zm31 15c1-3 2-5 1-7l-1 7Zm-75 81a6 6 0 0 0 4-4l-4 4Zm76 12 2 4a7 7 0 0 0-2-4Zm-43 5v5a6 6 0 0 0 0-5Zm63-28v1l5 1a8 8 0 0 0-5-2Zm-24-73 2-2c-2 0-2 1-2 2Zm76 158h3Zm-72-55-1-2Zm-6-108h-2a6 6 0 0 0 1 1l1-1Zm89 170v3Zm28-44v-1Zm-6-7v-1l-1 1Zm-110-12a6 6 0 0 0 0-1 7 7 0 0 0-1 0Zm88 79v1Zm-65-102a4 4 0 0 0-1 0 3 3 0 0 0 0 1l1-1Z"/><path d="m139 295-1 8a7 7 0 0 1-1-1c-6-6-12-12-16-20-4-9-4-18-1-27a4 4 0 0 1 1 0 6 6 0 0 1 1 0l9 13c5 6 8 13 8 21a2 2 0 0 0 1 1 5 5 0 0 0 0-1 158 158 0 0 1 5-31 4 4 0 0 0-1-4l-8-12c-7-12-6-24 0-35a9 9 0 0 1 1-1 5 5 0 0 1 0 1l8 14 5 13v7-1l7-14a4 4 0 0 0 0-4l-4-13c-3-10 0-19 6-28l2-2a4 4 0 0 1 1 1 58 58 0 0 0 2 12l2 6a20 20 0 0 1 0 8v3l1-1 6-9a3 3 0 0 0 1-3l-3-12c-2-9 2-17 9-23l2-1a4 4 0 0 1 0-1 8 8 0 0 1 0 2 36 36 0 0 0 2 11v2a16 16 0 0 1-1 12 4 4 0 0 0-1 2 11 11 0 0 0 2-1l9-10a4 4 0 0 0 1-3 90 90 0 0 1 1-12c1-6 5-11 10-14a8 8 0 0 1 1-1v8a43 43 0 0 1-1 7l-2 8a148 148 0 0 0-37 43l1-1 5-6a22 22 0 0 1 11-5c5-2 11-2 17-5a21 21 0 0 1-1 2c-4 12-12 19-24 21l-12 1a3 3 0 0 0-3 3l-7 17a4 4 0 0 0 0 2 12 12 0 0 0 0-1 21 21 0 0 1 10-9l6-3 7-4 2-2a25 25 0 0 1-1 8 25 25 0 0 1-11 18c-5 4-11 6-17 9a7 7 0 0 1-2 0 120 120 0 0 0-3 26 17 17 0 0 0 0-1 28 28 0 0 1 9-13l8-8 5-5v3c2 14-2 25-13 34l-8 7a3 3 0 0 0-2 2l2 18v1a5 5 0 0 0 0-1 26 26 0 0 1 4-12c3-5 7-10 9-17a11 11 0 0 1 1 2 42 42 0 0 1 4 15 33 33 0 0 1-4 16 76 76 0 0 1-9 15 2 2 0 0 0-1 3l6 18 1 1a5 5 0 0 0 0-1 29 29 0 0 1 2-15l5-14a49 49 0 0 0 1-5h1c4 7 8 14 8 22a41 41 0 0 1-3 17l-5 11a3 3 0 0 0 0 3l8 12a20 20 0 0 0 1 2 9 9 0 0 0 0-1v-14a75 75 0 0 0 0-17 9 9 0 0 1 0-1l2 1c6 4 10 10 13 17a38 38 0 0 1 2 18l-2 12a2 2 0 0 0 1 2 116 116 0 0 0 18 14 5 5 0 0 0-1-1 28 28 0 0 1-7-14l-2-8-3-10-1-2h2c10 4 17 11 21 22 3 7 4 15 5 23 1 6-1 5 6 6l52 12a22 22 0 0 0 4 0 170 170 0 0 0 50-8l23-8a4 4 0 0 0 3-2l3-12 2-4c2-5 4-9 10-10 3 1 7 3 8 7s0 7-1 11h2a13 13 0 0 1 8 4c2 1 3 3 3 5v1a5 5 0 0 0-1 1c-3 4-8 5-13 5a29 29 0 0 1-16-2 3 3 0 0 0-3 0 199 199 0 0 1-28 10 203 203 0 0 1-27 7 7 7 0 0 0-2 0 141 141 0 0 1 41 17c-1 2-11 7-15 9l-3-3c-7-7-15-11-23-15l-10-6a6 6 0 0 0-6 0l-24 13a60 60 0 0 0-12 9 2 2 0 0 1-3 1l-12-6a14 14 0 0 1-1-1 210 210 0 0 1 18-11 109 109 0 0 1 20-8l-8-1c-14-2-27-7-40-13l-6-3c-2-1-4 2-6 2-6 2-13 4-19 4a31 31 0 0 1-15-4 46 46 0 0 1-11-9 9 9 0 0 1-1-1 50 50 0 0 0 6-1l12-2a38 38 0 0 1 12-1h1l-15-14a103 103 0 0 1-14-15l-12-18a4 4 0 0 1-1 1c-8-2-15-5-21-9a32 32 0 0 1-13-18l-2-8a9 9 0 0 1 0-2 8 8 0 0 1 1 1l14 7c5 2 9 4 13 9a8 8 0 0 0 0-1l-5-17a4 4 0 0 0-2-3l-11-6a37 37 0 0 1-10-9c-4-5-6-11-7-18v-7a7 7 0 0 1 1 1 53 53 0 0 0 12 9c5 3 10 7 12 13h1l-2-29Z"/><path d="M397 306a37 37 0 0 0-4 1c-4 3-9 3-14 3l-47-6h-3l1 1 13 2 37 5a2 2 0 0 1 1 1 44 44 0 0 0-4 2l-8 1-38-9h-3c2 2 3 1 5 2l4 1v2l-10-2c1 2 3 2 5 2l4 2-1 2-8-3c0 2 2 2 3 3l5 2-1 2-9-3 4 2 4 3-1 2-8-5-1 1 4 3 4 2-2 2-8-5 7 7-1 2-7-6c0 2 1 2 2 3l4 4-2 1-7-6c0 2 2 3 3 4l3 4-2 1-7-7c0 2 2 3 3 4l2 4-2 2-2-4-3-4c0 3 3 6 4 8l-2 2-5-8v2l3 6-2 2-4-9 2 9a9 9 0 0 1-1 1h-1l-3-8v4l2 4-3 1-2-9v5l1 4-3 1c-1-3 0-6-2-9v4l1 5h-3l-1-9-1 5v4l-2 1v-10c-2 1-1 3-1 4l-1 5h-2v-9l-2 9-2-1 1-9-3 9h-2l2-9v-1c-2 1-1 3-2 4l-2 5-2-1 3-9-3 4-2 5-2-1 2-5 2-4-3 4-2 4-2-1 4-9-3 4-3 4-2-2 6-8-4 3-3 4-2-1 6-8h-1l-6 7-2-2 7-7-4 2-4 4-2-2 7-7-8 5-1-2 7-5c-2-1-3 1-4 2l-4 2-1-2 8-5v-1l-2 1-4 2-3 1-1-2 8-4c-2-1-3 0-4 1l-5 1-1-2 9-3-9 2-1-3 9-2-1-1-14 3-28 6a5 5 0 0 1-4 0 44 44 0 0 1-6-4l17-2 18-3 18-2c-1-2-1-1-2-1l-15 2-34 4a4 4 0 0 0-1 0c-4 1-9 0-13-2a29 29 0 0 1-4-3l17-1 17-1 17-1 17-1-2-1-14 1h-26l-29 1a12 12 0 0 1-7-1 39 39 0 0 1-3-2c3-2 5-4 9-3l57 1 13 1a13 13 0 0 0 2 0c0-2-1-2-2-2h-12l-41-2-10-1h-3a19 19 0 0 1 2-1l8-4a7 7 0 0 1 3 0l43 5 10 1a4 4 0 0 0 3 0l-2-1-15-2-35-5a16 16 0 0 1-1-1l7-3a5 5 0 0 1 3 0l40 9h3l-4-2-5-1 1-2 9 2c-1-2-3-2-4-2l-5-2 1-2 9 3-4-3-4-2 1-2 4 2c1 1 3 2 4 1l-7-5 1-2 8 5c0-2-2-3-3-3l-4-3 1-2 8 5-3-3-4-4 2-1 7 5-3-3-3-4 1-1 8 7-3-5-3-3 2-2 3 4c1 1 1 3 3 3l-2-4-3-4 2-1 6 7-2-4-3-4 2-2 5 8h1l-2-4-2-4 2-2 4 9h1a4 4 0 0 0 0-2l-2-4-1-3 2-1 3 9v-5l-1-4 2-1 3 9c1-2 0-3-1-5v-4l2-1c1 3 0 6 2 10v-10h2l1 9 1-5v-4h2v9c2-1 1-3 2-4v-5h2v9a7 7 0 0 0 1-1l1-6v-2l2 1-1 9c2-1 1-3 2-4l1-5 2 1-2 9h1l1-4 2-5 2 1-3 9c3-2 3-6 5-8l2 1-4 9 3-4 3-5 2 2-3 4-2 4c2 0 3-2 3-3l3-4 2 1-5 8c2 0 3-2 4-3l3-4 1 2-3 3-2 4 7-6 1 1-3 4-3 3 8-5 1 1-7 7 4-2 4-3 1 2-6 4-2 2c3 0 4-2 5-2l4-3 2 2-5 3-4 3 5-2 4-2 2 2-9 4h4a45 45 0 0 0 5-2l1 2-9 4 9-2 1 2a3 3 0 0 1-1 0l-6 2a17 17 0 0 0-2 1h3l19-4 22-5a5 5 0 0 1 3 0l6 3v1l-26 4-26 4a9 9 0 0 0 2 0l19-2 35-4a4 4 0 0 1 2 0l10 5-17 1-17 1-17 1-17 1 2 1h14l42-2h14a10 10 0 0 1 6 1l4 2c-3 2-6 4-10 4l-53-2-16-1a20 20 0 0 0-3 0l2 2h13l49 3h4Zm-132-8a8 8 0 0 0 1 8c1 2 2 2 3 0a18 18 0 0 0 2-2l2-6a4 4 0 0 1 4-2c0 4 3 5 6 5a33 33 0 0 0 3-1h2v3a24 24 0 0 1-9 12c-2 2-4 1-5-1a38 38 0 0 1-1-6l-1-2v1a16 16 0 0 0 2 10c1 3 4 4 6 2a9 9 0 0 0 3-2l4-4c2-2 3-4 3-7v-1c4 8 8 15 17 18a6 6 0 0 0 1-4c0-2-2-2-3-2a3 3 0 0 1-2-4c0-2 2-4 3-5a21 21 0 0 1 8-3c3-1 4-2 4-5h-11a2 2 0 0 1 1-1l8-3c1 0 2-3 1-4-2-2-4-4-8-4s-5 2-4 6l1 2-2 1-6 2-4 5h11a28 28 0 0 0-3 4 23 23 0 0 0-1 5c-5-3-10-11-10-15l5-2a4 4 0 0 0 0-1c-1-3-2-3-4-2l-2 2-5-10c-2 2-2 2-1 5l1 3 2 4-3 1a4 4 0 0 1-5-1v-4l1-3a5 5 0 0 0-4 1 14 14 0 0 0-5 8l-1 4a13 13 0 0 1-2 2c-2-2-3-4-3-7Zm14-11 2-1 12-6 5-2 1-3a6 6 0 0 0-1 1l-17 8a4 4 0 0 0-2 3Zm21 1v1a6 6 0 0 0 2 0 21 21 0 0 0 8-6 2 2 0 0 0 0-3c-1-2-2-2-4-1v3a23 23 0 0 0 2 2l-8 4Zm-18 34 9-5v-3l-8 6-1 2Zm0-43v1l8-4v-2l-7 4-1 1Zm-1 26-1-1-2 1-2-1-2 1 2 2h4Zm-12-17h4a2 2 0 0 0 1-1c-1-2-1-2-3-1l-1-1-2 2Zm27 1a8 8 0 0 0-2-1l-2 2v2l2-2 2 1h1Zm16 22 2-4h-2c0 2-2 3 0 4Zm-21 11h-1a10 10 0 0 0 0 2h1v-2ZM487 188l6 9-29 18-3-5 20-13v-1l-24 8-3-5 16-18v-1l-20 13-3-5 28-19 3 4 2 5-7 8-7 9a103 103 0 0 0 10-4l11-3ZM439 177l-3-3-2-2 16-17-21 13-4-4 11-22-3 2-2 3-3 3-3 3-2 3-3 3-5-4 23-25 8 7-11 20 19-12 8 7ZM290 110h-6l-2-23-5 24h-6l-8-23 1 24h-6l-2-33a85 85 0 0 1 10-1l7 21h1l4-22 10-1 2 34ZM435 386a25 25 0 0 1-16 16 46 46 0 0 1-9 2 6 6 0 0 0-3 2l-6 5a9 9 0 0 1-1 1l-3-3 4-4 2-4a118 118 0 0 1-3-12 30 30 0 0 1 0-9l2-7c4 0 7 0 10 3s4 5 5 9a10 10 0 0 0 1-1c5-2 10-1 14 2h3ZM201 499l-6 12-7-3 15-31a7 7 0 0 1 1 1l14 7a19 19 0 0 1 3 1 8 8 0 0 1 3 10c-1 5-4 7-8 7h-3l3 18a32 32 0 0 1-7-4l-1-1-2-11c0-4-2-6-5-6Zm6-13-4 7a61 61 0 0 0 9 4 4 4 0 0 0 5-2 4 4 0 0 0-2-5l-8-4ZM114 383a15 15 0 0 1 0 1l2 4c-1 2-28 12-32 13l-2-6 1-2 11-14a24 24 0 0 0 3-4l-20 7-2-6 31-12a60 60 0 0 1 3 6l-1 2-8 11a60 60 0 0 0-5 7ZM71 244l7-18c2-6 8-6 12-4a8 8 0 0 1 5 7v3c5-3 11-4 17-5a25 25 0 0 1-2 7l-2 1-11 3c-3 1-4 3-5 6l13 5-2 6Zm16-2 3-9c0-2-1-4-3-5a3 3 0 0 0-5 2l-3 10ZM481 266l33-5 1 1 2 16a11 11 0 0 1-5 10 23 23 0 0 1-20 3 11 11 0 0 1-8-9l-3-16Zm7 6 2 8a5 5 0 0 0 4 5 22 22 0 0 0 13-2 6 6 0 0 0 4-5 32 32 0 0 0-1-9ZM184 418h-8a61 61 0 0 1-14-2 33 33 0 0 1-20-15l-4-7 1-1c5 2 11 3 17 3l13 4a31 31 0 0 1 6 5l8 11a13 13 0 0 1 1 2ZM491 415l-4 6-11-7-7 11 11 7-4 6-28-18 3-6 13 8 7-11-13-8 4-6 29 18ZM101 268l-4 25-33-4 3-25 6 1-1 9-1 9 7 1 2-17 6 1-3 16 9 2 3-19ZM449 341a20 20 0 0 1-6 11 28 28 0 0 1-11 7 4 4 0 0 0-3 4l-1 3a17 17 0 0 1-3-2 2 2 0 0 1 0-1 5 5 0 0 0 0-5l-3-6-2-6a17 17 0 0 1 1-13c6 0 11 1 14 7l7-1a11 11 0 0 1 7 2ZM110 208h2c5 1 9-4 8-9 0-3-3-4-5-2l-3 3a73 73 0 0 1-6 5c-4 3-9 2-12-1a9 9 0 0 1-2-8 19 19 0 0 1 6-11c4-3 7-3 11-1a38 38 0 0 1-3 6l-5 1a9 9 0 0 0-3 6 2 2 0 0 0 4 2 31 31 0 0 0 4-3l5-5c6-5 15 0 16 7a8 8 0 0 1 0 2 19 19 0 0 1-7 13c-4 3-8 3-13 1ZM369 126l-6-2 2-7 2-7-12-4-5 13-6-2 10-32 7 2-4 13 12 4 4-12 7 2-11 32ZM223 96l-5 3a4 4 0 0 1-1 0c-1-2-3-3-5-3a9 9 0 0 0-6 3c-1 2 0 4 2 5a36 36 0 0 0 5-1h8c7 0 11 8 8 14a10 10 0 0 1-3 4 22 22 0 0 1-10 4 11 11 0 0 1-12-7l5-3 2 2c3 3 9 3 12-1 1-3 0-6-3-6h-5a56 56 0 0 1-8 0 9 9 0 0 1-5-15 18 18 0 0 1 13-5c4 0 7 3 8 6ZM258 139a9 9 0 0 1-1 1l-11 12c-8 7-17 10-27 9l-4-1a9 9 0 0 1 0-1 26 26 0 0 1 14-16 44 44 0 0 1 15-4h12a17 17 0 0 1 2 0ZM334 528l-6 1a2 2 0 0 1-2-1l-2-5a2 2 0 0 0-3-1l-9 1a2 2 0 0 0-2 2 48 48 0 0 1-1 5l-2 1-6 1v-2l8-31c0-2 0-2 3-2l2-1c2 0 3 0 4 2l11 21 5 7v2Zm-20-22-3 11a31 31 0 0 0 9-1l-6-10ZM467 388l2-6 2-1h5a2 2 0 0 0 2-2l4-11-3-3c-3-2-3-2-2-5l2-4a13 13 0 0 1 1 1l24 22c2 1 2 2 1 4a27 27 0 0 0-1 3 2 2 0 0 1-2 2h-34a14 14 0 0 1-1 0Zm17-7h11a7 7 0 0 0 1 0l-9-8ZM359 486l6-3 2 5 7 13v1c3 5 7 6 11 2a4 4 0 0 0 1-5l-2-6-6-14-1-2 6-3a11 11 0 0 1 1 2l8 19a25 25 0 0 1 2 3 9 9 0 0 1-3 10 21 21 0 0 1-11 5c-5 1-8-1-10-5l-6-10-5-12ZM109 442l-4-6 2-2 16-9v-1c5-3 5-8 0-11a4 4 0 0 0-4-1l-6 3-12 8-3 2a32 32 0 0 1-3-6 8 8 0 0 1 1-1l17-10a28 28 0 0 1 3-2 9 9 0 0 1 11 2 21 21 0 0 1 6 10 10 10 0 0 1-3 10 35 35 0 0 1-4 3l-16 10-1 1ZM480 256l-3-6 1-2 4-3 1-2-3-11a2 2 0 0 0-2-1h-5a2 2 0 0 1-3-2l-1-5h2l32 1a2 2 0 0 1 2 2 23 23 0 0 0 2 3 2 2 0 0 1-1 3l-13 11-12 11-1 1Zm8-17c3-1 8-6 9-8h-12ZM407 148l-5-4-1-2a42 42 0 0 1 1-4 2 2 0 0 0-1-3l-8-5a2 2 0 0 0-3 0l-5 4-6-4 29-22 6 4-7 36Zm-11-23 8 5 2-12ZM176 139l1 8-6 4-1-10-5-23c0-3-1-3 2-4l4-3 29 22a27 27 0 0 1-6 3h-1l-5-3a2 2 0 0 0-2-1l-10 7Zm-1-6 7-5-9-7h-1l3 12ZM308 77h6a18 18 0 0 1 0 3l-2 17a34 34 0 0 0 0 4 5 5 0 0 0 4 5 13 13 0 0 0 3 1c3 0 5-2 6-4l1-9 1-13 1-2 6 1v3l-2 18a32 32 0 0 1-1 4 9 9 0 0 1-8 7 22 22 0 0 1-11-1 10 10 0 0 1-7-9l1-13 2-10v-2ZM63 306h2l30 9c3 0 3 0 3 3v3c0 2 0 2-2 3l-23 10-8 3a21 21 0 0 1 0-7l1-1 8-3 12-5 2-1-3-1-19-5c-3-1-3-1-3-3v-5ZM454 297l-2 10a22 22 0 0 1-7 9c-2 2-4 3-4 7l-3-1v-1c1-2 0-4-2-5a20 20 0 0 1-3-3c-4-4-6-9-6-16 5-1 10-1 14 4a25 25 0 0 1 4-3 12 12 0 0 1 4-1 32 32 0 0 1 5 0ZM502 342l8 7c5 4 4 2 3 8l-1 3-1-2-13-12a9 9 0 0 0-6-2l-9-2h-2l1-7a17 17 0 0 1 2 0l11 2a6 6 0 0 0 3 0l17-7 3-1-1 4c-1 4 0 3-4 5l-11 4ZM137 145l-7 7-4-5 19-18 4 4-7 7 19 21-5 4-19-20ZM212 180c-3 5-6 10-11 14a19 19 0 0 1-8 3 48 48 0 0 1-15 0v-1l9-10c3-3 8-5 12-5l11-1h2ZM151 475a10 10 0 1 1 0-21 10 10 0 0 1 0 21ZM432 475a10 10 0 1 1 10-10 10 10 0 0 1-10 10ZM442 284h-2c0-3-2-5-4-6l-6-5a11 11 0 0 1-4-9c5-3 9-3 13 1l4-5h6a14 14 0 0 1 0 7 18 18 0 0 1-5 11 6 6 0 0 0-2 5v1ZM323 359l4-2 4 7 18 29a9 9 0 0 1 2 5v5c-3-2-6-3-8-6l-19-37-1-1ZM291 420c-1-4-4-7-3-11l1-40v-2h4a15 15 0 0 1 0 2l1 28 1 11a13 13 0 0 1-2 8l-2 4ZM256 357l3 2-1 2-19 36a9 9 0 0 1-3 3l-5 3v-3a15 15 0 0 1 3-9l20-32 2-2ZM395 359h-8a4 4 0 0 1-1-1l-36-23h-1l2-4 8 5 28 15c4 1 6 5 8 8ZM234 335l-11 6-25 16a11 11 0 0 1-5 2h-6c3-3 4-6 8-8a2980 2980 0 0 0 37-20ZM351 267l-2-3 1-2 35-21a10 10 0 0 1 4-1l6-1-6 7-37 20-1 1ZM234 264l-2 3-14-7-23-13a11 11 0 0 1-5-4 40 40 0 0 1-2-4c3 0 7 0 10 2l34 22 2 1ZM259 239l-3 2-2-3-20-32a11 11 0 0 1-2-6v-5l7 7 19 35 1 2ZM351 195v7a5 5 0 0 1-1 2l-22 36a15 15 0 0 1-1 1l-4-2 1-2 20-36a9 9 0 0 1 2-2l5-4ZM291 179c2 4 4 6 4 10l-2 40v2h-4v-3l-1-40a3 3 0 0 1 0-2l3-7ZM260 496h7l-5 34a24 24 0 0 1-7-1l5-33ZM519 307v6h-34a12 12 0 0 1 0-6h34ZM103 351l-33 8-2-7 33-8 2 7ZM112 165l4-6 26 21-4 6ZM438 229a16 16 0 0 1-1 15v6h-2c0-2-2-3-4-4l-6-3a8 8 0 0 1-4-7c3-3 5-3 10-2 2-2 3-6 7-5ZM228 167c-4 5-7 8-12 10-6 2-13 1-19-1a12 12 0 0 1 1-1l6-5a17 17 0 0 1 11-3h13ZM261 359l3 2-3 9-7 16a7 7 0 0 1-2 3l-9 5 18-35ZM349 388l-21-32 3-3 2 2 14 19a8 8 0 0 1 2 5l1 7v2ZM295 367l4-1v3l3 23a9 9 0 0 1-1 5l-4 9-2-39ZM352 329l1-3 9 3 16 7a6 6 0 0 1 3 3l5 8-34-18ZM202 357l33-21 2 3-2 2-19 14a8 8 0 0 1-4 2l-10 1ZM425 224c-2-3-2-3-6-4h-3c-3-1-5-2-5-5 1-2 1-4 3-4a22 22 0 0 1 5 0v-3c1-2 2-2 5-2l3 2a25 25 0 0 1 0 6c0 3-2 6-1 9l-1 1ZM380 358l-12-1a4 4 0 0 1-1-1l-21-16h-1l3-4 32 21ZM338 394l-9-6a4 4 0 0 1-1-2l-10-24a5 5 0 0 1 0-1l3-1 18 34ZM283 366l4 1-2 38a10 10 0 0 1-1-1l-4-8a5 5 0 0 1 0-3l3-26a7 7 0 0 1 0-1ZM250 353l4 2-21 33a11 11 0 0 1 0-2l1-9a6 6 0 0 1 1-2l15-21a14 14 0 0 0 0-1ZM197 251l34 18-2 3a17 17 0 0 1-2-1l-23-9a4 4 0 0 1-1-1l-7-9ZM196 346l7-9a4 4 0 0 1 1-1l23-10a16 16 0 0 1 2 0l2 3c-2 1-30 16-35 17ZM348 262l-2-3 1-2 20-15a4 4 0 0 1 2-1l11-1-32 22ZM354 272a16 16 0 0 1-1-1l-1-2 34-18v1l-4 6a13 13 0 0 1-7 5l-19 8-2 1ZM203 240l11 1a4 4 0 0 1 1 1l21 16a5 5 0 0 1 1 1l-2 3-32-21ZM233 211l21 31-3 3-2-2-14-19a8 8 0 0 1-1-4l-1-9ZM350 211l-1 10a4 4 0 0 1-1 2l-16 21a4 4 0 0 1 0 1l-3-2 20-33ZM244 204l9 6a4 4 0 0 1 1 2l10 24v1l-3 1-17-34ZM339 205l-17 33-4-1 1-2 10-23a6 6 0 0 1 1-2l7-5a6 6 0 0 1 1-1ZM285 193l2 38-4 1-1-8-2-19a6 6 0 0 1 1-3l4-9ZM298 193l3 6a14 14 0 0 1 1 9l-3 22v2l-4-1 2-37ZM397 196c2-4 3-5 7-4a31 31 0 0 1 2-5l2-2a6 6 0 0 1 4 5 23 23 0 0 1 0 6l2 6h-2l-5-2a41 41 0 0 1-6-2 5 5 0 0 1-4-2ZM383 181c0-4 1-5 6-5v-2a8 8 0 0 1 1-3c1-2 2-2 4 0a12 12 0 0 1 2 4 13 13 0 0 1 0 4l1 4v2l-1-1a3 3 0 0 0-3-1 44 44 0 0 1-6-1 25 25 0 0 1-4-1ZM238 341l3 3a11 11 0 0 1-1 1l-11 9a4 4 0 0 1-1 1l-8 1h-1ZM257 384l9-22 4 1-1 3-4 12a5 5 0 0 1-2 2l-4 4a10 10 0 0 1-2 0ZM304 390l-3-24a5 5 0 0 1 1 0l3-1a5 5 0 0 1 0 2l3 14a3 3 0 0 1 0 1l-3 8ZM333 352l3-2 2 2 8 9a5 5 0 0 1 2 3v7l-15-19Z"/><path d="m354 324 1-4 3 1 12 4a5 5 0 0 1 2 2l4 6ZM324 384l-6-5a3 3 0 0 1-1-1l-5-14a4 4 0 0 1 0-1l4-1 9 22ZM277 389l-3-7a2 2 0 0 1 0-1l3-16 4 1-3 23ZM246 349l3 3-14 19-1-2a18 18 0 0 0 1-2c-1-4 1-7 4-10l7-8ZM362 356a71 71 0 0 1-8-1 3 3 0 0 1-1 0l-11-10a4 4 0 0 1 0-1l2-3 18 15ZM227 320l1 4-22 9a10 10 0 0 1 1-2c4-6 4-6 11-8l7-2 2-1ZM363 242l-19 15a14 14 0 0 0-1-1l-1-2a16 16 0 0 0 1-2l10-8a5 5 0 0 1 2-1l8-1ZM228 274l-1 4-2-1-12-4a5 5 0 0 1-3-2l-4-5 22 8ZM235 228l14 18-3 2a12 12 0 0 1-1-1l-9-10a5 5 0 0 1-1-2l-1-7ZM376 266l-5 7a3 3 0 0 1-1 0l-14 5a4 4 0 0 1-1 0l-1-4 22-8ZM220 242l8 1a2 2 0 0 1 1 0l12 11-3 3-18-15ZM348 228l-1 8a2 2 0 0 1 0 1l-10 11a3 3 0 0 1-1 0l-3-2 14-18ZM316 236l-3-1v-3l4-11a5 5 0 0 1 2-3 39 39 0 0 1 6-4ZM278 209l3 23h-1l-2 1a13 13 0 0 1-1-2l-3-13a4 4 0 0 1 0-2l3-7ZM305 209l3 7a3 3 0 0 1 0 2l-3 14v1l-4-1 4-23ZM258 214l6 5a3 3 0 0 1 1 1l5 14v1l-4 1-8-21ZM374 164c0-2 0-4 2-6a4 4 0 0 1 3 3 11 11 0 0 1 1 4c0 2 0 3 2 4 0 1-1 2-2 1l-4-1a17 17 0 0 1-3 0 16 16 0 0 1-3-1c0-3 2-4 4-4ZM368 160a4 4 0 0 1-1 0 7 7 0 0 0-4 0 12 12 0 0 1-6-1c-1-2 0-4 3-4 1-2-1-4 2-5a8 8 0 0 1 5 6 20 20 0 0 0 1 4ZM338 349l2-4 10 10h-3v3ZM273 378l-2-3-3 2 4-13 4 1-3 13ZM307 365l4-1 4 13-3-2-2 3-3-13ZM215 319l-3-1 13-3 1 3-13 4ZM242 345l3 4-9 9v-3h-4ZM357 315l13 3-3 1 2 3-13-3 1-4ZM370 280l-13 3-1-3 13-4-2 3ZM213 280l2-1-1-3 12 4-1 3a66 66 0 0 1-12-3ZM347 240v3l3 1-10 8-2-2ZM242 253l-10-9 4-1v-3l9 10-3 3ZM311 234l-4-1 3-13 2 3 2-2ZM268 221l3 2 2-3 3 13-4 1ZM341 276a15 15 0 0 1-2-3 8 8 0 0 0-2-2l-4-7a16 16 0 0 0-3-2l-6-4a7 7 0 0 1-3-4 24 24 0 0 0 6 4c1-2 0-4-1-6 2 2 2 3 2 5s0 3 2 3l4-1a22 22 0 0 1 2 7 4 4 0 0 0 1 3 8 8 0 0 0 2 1l2 6Zm-8-13v-2h-2Zm1 3h1l-1-2h-1ZM354 151l-10 2 2-4a2 2 0 0 0 1-3 7 7 0 0 1 1-2 5 5 0 0 1 4 4l2 3ZM244 272l-1 1a4 4 0 0 1-2 4 4 4 0 0 0-2 2 9 9 0 0 1-3 5 8 8 0 0 1-1-2 16 16 0 0 1 1-3v-4l3 1a3 3 0 0 0 3-1c1-2 0-3-1-3s-2 0-3-2a8 8 0 0 1 1 0h4a2 2 0 0 0 2-1c0-1 0-2-2-2h-3l1-1a28 28 0 0 1 5 0v3a21 21 0 0 1-2 3Zm-7 9 2-4c-2 1-2 1-2 4ZM234 321c-2-1-2-3-2-5a6 6 0 0 1 3 2c1 1 1 2 3 2l-2 2c-1 2 0 3 2 4 1-1 1-2 3-2l-2 2a11 11 0 0 0-1 2 2 2 0 0 0 1 2 2 2 0 0 0 2-1 19 19 0 0 0 1-2l-2 4a2 2 0 0 1-2 0 9 9 0 0 1 0-3l-1-1a5 5 0 0 1-2-5 4 4 0 0 0-1-1h2a3 3 0 0 0-3-3ZM283 356a7 7 0 0 0 1 1c1 1 2 0 2-1h3c2 2 4 2 6 1l-2-1h4l3 1a4 4 0 0 1-1 1h-17a20 20 0 0 1-4-1l-1-1a17 17 0 0 0 2 1 10 10 0 0 0 2 0l2-1Zm6 1-1-1-1 1h2ZM323 347a7 7 0 0 0 5-3c-1-2-2-1-4-1h4c3-1 0-3 2-5l6-1a15 15 0 0 1-2 2 29 29 0 0 0-5 5 31 31 0 0 1-3 3 2 2 0 0 1-3 0Zm11-9h-2v1Zm-3 1h-1l1 1ZM270 245l1-2 2 2a4 4 0 0 0 4 1l4-1-3-7a2 2 0 0 1 2 0c-1 3 2 5 2 8a18 18 0 0 1-6 1h-3a7 7 0 0 0-2 0l1-2ZM254 250l2-1 1 5 1 2-4 4 1-2a3 3 0 0 0 2-2c-3-1-7 0-10 2h-2l2-2 6-1 3-1a3 3 0 0 0-1-4 6 6 0 0 1-1 0ZM263 350l-6-3h-1c-2 1-3 0-4-1l3 1a16 16 0 0 0 0-2v-2a1 1 0 0 1 2 1 2 2 0 0 1 0 1c1 2 1 2 4 2l2 3ZM254 339l-2 2c-1 2-1 2-3 2a8 8 0 0 1-4-4 3 3 0 0 1 0-3 6 6 0 0 0 3 5c2 1 3 1 5-1a8 8 0 0 1 1-1ZM346 320l-1 1h-1a2 2 0 0 1-1-2 2 2 0 0 1 3-2l2 2c0 2 0 4-2 7l1-6Zm-1-1v1ZM303 245c1 3 5 4 8 6a12 12 0 0 1-8-3v-3ZM264 354l4 1a8 8 0 0 0 2 0c2 0 2-1 1-2a4 4 0 0 1 0-2 3 3 0 0 1 1 3c0 2 0 2-2 2a9 9 0 0 1-6-2ZM300 357l4-3c2-1 2-1 3 2l-7 1Zm6-2-1-1-1 1ZM310 358c3 0 5-1 7-3a8 8 0 0 1-5 4l-2-1ZM296 242l-7-3c2-1 5 0 7 3ZM248 263l-7-1a8 8 0 0 1 7 1ZM341 276l2 1c0 1-1 3 1 4l1-2c0 2-1 2-2 3l-2-6ZM341 329a7 7 0 0 0-1 2l-4 4v-1l1-1c2-1 2-2 2-4h2ZM261 246a8 8 0 0 1 3 6l-3-6ZM344 284l5-3a7 7 0 0 1-5 3ZM286 238a8 8 0 0 1 0 6l-1-5ZM317 253l1-7c1 2 0 4-1 7ZM242 334l4-4a6 6 0 0 1-4 4ZM263 350l2-1c1 2 2 2 3 0 0 2-1 3-2 2l-3-1ZM298 245l1 2-6-1 2-1a4 4 0 0 0 3 1l1-1ZM318 346a7 7 0 0 1 2 4l-2-4ZM299 244c0-1 2-2 1-5l3 1-4 4ZM275 351a6 6 0 0 1 0 5v-5ZM338 323a8 8 0 0 1 5 2l-5-1ZM254 339c-1-3-1-3 1-4v1a25 25 0 0 0-1 3Z"/><path class="prefix__cls-1" d="M270 245h2l-1 2h-1v-2Z"/><path d="M270 245v2a2 2 0 0 1-2 1l2-3ZM296 242l3 2-1 1h1-1l-2-3ZM314 250c0-1 0-2 2-2l-2 2ZM341 329l-1-3 2 1a6 6 0 0 1-1 2ZM283 356l-2-3 2 3ZM390 408h3-3ZM318 353l-1-2 1 2ZM312 245l-1 1a6 6 0 0 1-1-1h2ZM401 415v3-3ZM435 386v-3 3ZM429 371v-1 1ZM423 364h-1l1-1ZM313 352l-1-1a7 7 0 0 1 1 0 6 6 0 0 1 0 1ZM401 431v1-1ZM336 329l-1 1a3 3 0 0 1 0-1 4 4 0 0 1 1 0Z"/><path class="prefix__cls-1" d="M265 298c0 3 1 5 3 7a13 13 0 0 0 2-2l1-4a14 14 0 0 1 5-8 5 5 0 0 1 4-1c1 1 0 2-1 3v4a4 4 0 0 0 5 1l3-1-2-4-1-3c-1-3-1-3 1-5l5 10 2-2c2-1 3-1 4 2a4 4 0 0 1 0 1l-5 2c0 4 5 12 10 15a23 23 0 0 1 1-5 28 28 0 0 1 3-4h-11l4-5 6-2 2-1-1-2c-1-4 1-6 4-6s6 2 8 4c1 1 0 4-1 4l-8 3a2 2 0 0 0-1 1h11c0 3-1 4-4 5a21 21 0 0 0-8 3c-1 1-3 3-3 5a3 3 0 0 0 2 4c1 0 3 0 3 2a6 6 0 0 1-1 4c-9-3-14-10-17-18v1c0 3-1 5-3 7l-4 4a9 9 0 0 1-3 2c-2 2-5 1-6-2a16 16 0 0 1-2-10v-1l1 2a38 38 0 0 0 1 6c1 2 3 3 5 1a24 24 0 0 0 9-12v-3h-2a33 33 0 0 1-3 1c-3 0-6-1-6-5a4 4 0 0 0-4 2l-2 6a18 18 0 0 1-2 2c-1 2-2 2-3 0a8 8 0 0 1-1-8Zm43-3 6-2a5 5 0 0 0-4-2c-2 1-3 2-2 4ZM279 287a4 4 0 0 1 2-3l17-8a6 6 0 0 1 1-1l-1 3-5 2-12 6-2 1Z"/><path class="prefix__cls-1" d="m300 288 8-4a23 23 0 0 1-2-2v-3c2-1 3-1 4 1a2 2 0 0 1 0 3 21 21 0 0 1-8 6 6 6 0 0 1-2 0Zm8-6h1v-1h-1v1ZM282 322l1-2 8-6v3l-9 5ZM282 279l1-1 7-4v2l-8 4ZM281 305l-1 2h-4l-1-2 1-1 2 1 2-1ZM269 288l-1-1 2-2 1 1c2-1 2-1 4 1a7 7 0 0 1-1 1 2 2 0 0 1-1 0ZM296 289l1 2h-1l-2-1-2 2v-2l2-2a8 8 0 0 1 2 1ZM312 311c-2-1 0-2 0-4h2ZM291 322l1 2h-2a10 10 0 0 1 1-2ZM207 486l8 4a4 4 0 0 1 2 5 4 4 0 0 1-5 2 61 61 0 0 1-9-4l4-7ZM87 242l-8-2 3-10a3 3 0 0 1 5-2c2 1 3 3 3 5l-3 9ZM488 272l22-3a32 32 0 0 1 1 9 6 6 0 0 1-4 5 22 22 0 0 1-13 2 5 5 0 0 1-4-5l-2-8ZM314 506l6 10a31 31 0 0 1-9 1l3-11ZM484 381l3-8 9 8a7 7 0 0 1-1 0ZM488 239l-3-8h12c-1 2-6 7-9 8ZM396 125l10-7-2 12ZM175 133l-3-12h1l9 7ZM333 263l-2-2h2v2ZM334 266l-1-2h1l1 2ZM237 281c0-3 0-3 2-4l-2 4ZM234 321l-1-2a3 3 0 0 1 3 2h-2ZM289 357h-2l1-1 1 1ZM334 338l-2 1v-1h2ZM331 339v1l-1-1ZM345 319v1-1ZM306 355h-2l2-1Z"/><path d="M308 295c-1-2 0-3 2-4a5 5 0 0 1 4 2ZM308 282v-1h1v1Z"/></g></g></svg>